<?xml version="1.0" standalone="no"?>
<!DOCTYPE svg PUBLIC "-//W3C//DTD SVG 1.1//EN" "http://www.w3.org/Graphics/SVG/1.1/DTD/svg11.dtd" >
<svg xmlns="http://www.w3.org/2000/svg">
<metadata></metadata>
<defs>
<font id="teuton_23_proregular" horiz-adv-x="958" >
<font-face units-per-em="2048" ascent="1638" descent="-410" />
<missing-glyph horiz-adv-x="538" />
<glyph horiz-adv-x="2048" />
<glyph horiz-adv-x="2048" />
<glyph unicode="&#xd;" horiz-adv-x="681" />
<glyph unicode=" "  horiz-adv-x="538" />
<glyph unicode="&#x09;" horiz-adv-x="538" />
<glyph unicode="&#xa0;" horiz-adv-x="538" />
<glyph unicode="!" horiz-adv-x="409" d="M129 0v160h154v-160h-154zM133 1434h146l-3 -1125h-141z" />
<glyph unicode="&#x22;" horiz-adv-x="612" d="M135 1434h123l-12 -344h-99zM356 1434h123l-14 -344h-96z" />
<glyph unicode="#" horiz-adv-x="1026" d="M47 371v116h146l71 420h-127v117h148l73 410h138l-72 -410h297l74 410h137l-72 -410h117v-117h-139l-72 -420h125v-116h-148l-63 -371h-137l63 371h-299l-63 -371h-138l64 371h-123zM330 487h299l71 420h-297z" />
<glyph unicode="$" horiz-adv-x="839" d="M119 209v139q27 -14 80 -14h323q25 0 42.5 19.5t17.5 45.5v117q0 49 -31 72l-334 229q-98 51 -98 182v68q0 80 41 123t114 43h95v201h123v-201h231v-141q-31 16 -80 16h-324q-23 0 -41 -19.5t-18 -46.5v-45q0 -47 31 -67l342 -234q90 -47 90 -172v-159q0 -74 -40 -115 t-110 -41h-81v-209h-123v209h-250z" />
<glyph unicode="%" horiz-adv-x="1228" d="M102 932v313q0 82 47.5 135.5t141.5 53.5h74q92 0 139 -53.5t47 -135.5v-311q0 -92 -49 -143.5t-144 -51.5h-73q-86 0 -134.5 50.5t-48.5 142.5zM176 0l735 1434h142l-738 -1434h-139zM211 944q0 -98 90 -98h51q90 0 90 98v287q0 98 -90 98h-51q-90 0 -90 -98v-287z M678 193v313q0 82 47 135t141 53h74q92 0 139 -53t47 -135v-311q0 -92 -49 -143.5t-143 -51.5h-74q-86 0 -134 50.5t-48 142.5zM786 205q0 -98 91 -99h51q90 1 90 99v287q0 98 -90 98h-51q-90 0 -91 -98v-287z" />
<glyph unicode="&#x26;" horiz-adv-x="1316" d="M152 209v450q0 193 198 193q-102 2 -150 49t-48 152v172q0 209 204 209h545v-146q-29 10 -61 10h-457q-80 0 -80 -90v-209q0 -39 22.5 -64.5t57.5 -25.5h483l146 117v-117h215v-125h-215v-585q0 -68 59 -68h76q49 0 80 16v-147h-183q-178 0 -178 182v602h-483 q-35 0 -57.5 -25.5t-22.5 -64.5v-471q0 -92 80 -92h293q33 0 59 10v-141h-379q-205 0 -204 209z" />
<glyph unicode="'" horiz-adv-x="413" d="M135 1434h123l-12 -330h-99z" />
<glyph unicode="(" horiz-adv-x="663" d="M158 -59v1130q0 203 90 283t321 80v-129q-162 0 -212 -48.5t-50 -171.5v-1146q0 -125 51 -173.5t211 -48.5v-127q-227 0 -319 79t-92 272z" />
<glyph unicode=")" horiz-adv-x="663" d="M94 -283q160 0 212 48.5t52 173.5v1146q0 125 -51 172.5t-213 47.5v129q231 0 322.5 -80t91.5 -283v-1130q0 -193 -93 -272t-321 -79v127z" />
<glyph unicode="*" horiz-adv-x="876" d="M111 1153l39 113l249 -101l-20 269h117l-19 -269l250 103l39 -113l-264 -65l174 -205l-96 -72l-142 229l-139 -229l-98 72l172 205z" />
<glyph unicode="+" horiz-adv-x="946" d="M113 539v116h301v303h118v-303h302v-116h-302v-303h-118v303h-301z" />
<glyph unicode="," horiz-adv-x="419" d="M63 -297l82 299v158h142v-166l-97 -291h-127z" />
<glyph unicode="-" horiz-adv-x="618" d="M109 535v124h401v-124h-401z" />
<glyph unicode="." horiz-adv-x="395" d="M121 0v160h153v-160h-153z" />
<glyph unicode="/" horiz-adv-x="890" d="M6 -410l723 1844h162l-721 -1844h-164z" />
<glyph unicode="0" horiz-adv-x="1058" d="M160 209v1016q0 96 51 152.5t154 56.5h329q102 0 152.5 -56.5t50.5 -152.5v-1016q0 -96 -50 -152.5t-153 -56.5h-329q-102 0 -153.5 56.5t-51.5 152.5zM309 233q0 -100 92 -100h256q93 0 93 100v967q0 100 -93 100h-256q-92 0 -92 -100v-967z" />
<glyph unicode="1" horiz-adv-x="1058" d="M197 1034v158l438 283v-1342h254v-133h-649v133h252v1102z" />
<glyph unicode="2" horiz-adv-x="1058" d="M174 0v397q0 121 100 207l441 389q45 39 45 105v100q0 102 -92 102h-392q-49 0 -79 -16v150h508q102 0 153 -55.5t51 -153.5v-127q0 -68 -23.5 -117t-84.5 -102l-432 -379q-45 -39 -45 -105v-262h493q49 0 80 17v-150h-723z" />
<glyph unicode="3" horiz-adv-x="1058" d="M147 0v143q25 -10 60 -10h448q94 0 95 103v339q0 117 -99 117h-340q-31 0 -61 -6v137q31 -6 61 -6h340q98 0 99 115v268q0 100 -93 100h-448q-33 0 -62 -10v144h547q102 0 152.5 -56.5t50.5 -152.5v-254q0 -106 -46 -160.5t-146 -56.5q193 -8 192 -222v-323 q0 -96 -50 -152.5t-153 -56.5h-547z" />
<glyph unicode="4" horiz-adv-x="1058" d="M96 387v105l527 942h159v-922h156q29 0 59 6v-137q-31 6 -59 6h-156v-387h-143v387h-543zM233 512h406v723z" />
<glyph unicode="5" horiz-adv-x="1058" d="M160 0v150q27 -16 78 -17h419q92 0 93 100v359q0 100 -93 100h-497v742h712v-144q-29 10 -61 10h-502v-483h385q102 0 152.5 -56t50.5 -153v-401q0 -96 -49.5 -151.5t-151.5 -55.5h-536z" />
<glyph unicode="6" horiz-adv-x="1058" d="M160 209v1016q0 96 51 152.5t154 56.5h520v-144q-29 10 -62 10h-422q-92 0 -92 -100v-383h385q102 0 152.5 -56t50.5 -153v-399q0 -96 -50 -152.5t-153 -56.5h-329q-102 0 -153.5 56.5t-51.5 152.5zM309 233q0 -100 92 -100h258q90 0 91 100v359q0 100 -93 100h-348v-459 z" />
<glyph unicode="7" horiz-adv-x="1058" d="M129 1296v138h801v-113l-481 -1321h-160l493 1307h-565q-59 0 -88 -11z" />
<glyph unicode="8" horiz-adv-x="1058" d="M160 209v323q0 213 194 222q-195 6 -194 217v254q0 96 51 152.5t154 56.5h329q102 0 152.5 -56.5t50.5 -152.5v-254q0 -106 -46 -160.5t-146 -56.5q193 -8 192 -222v-323q0 -96 -50 -152.5t-153 -56.5h-329q-102 0 -153.5 56.5t-51.5 152.5zM307 227q0 -100 92 -100h258 q94 0 95 100v348q0 117 -99 117h-250q-96 0 -96 -117v-348zM307 932q0 -115 96 -115h250q98 0 99 115v274q0 100 -93 101h-260q-92 0 -92 -101v-274z" />
<glyph unicode="9" horiz-adv-x="1058" d="M154 881v344q0 96 51 152.5t153 56.5h330q102 0 152.5 -56.5t50.5 -152.5v-1016q0 -96 -50 -152.5t-153 -56.5h-520v143q29 -10 61 -10h422q92 0 92 100v439h-385q-102 0 -153 56t-51 153zM303 897q0 -100 92 -100h348v403q0 100 -92 100h-258q-90 0 -90 -100v-303z" />
<glyph unicode=":" horiz-adv-x="409" d="M129 0v160h154v-160h-154zM129 864v160h154v-160h-154z" />
<glyph unicode=";" horiz-adv-x="419" d="M63 -297l82 299v158h142v-166l-97 -291h-127zM139 864v160h154v-160h-154z" />
<glyph unicode="&#x3c;" horiz-adv-x="946" d="M113 610v103l721 393v-119l-555 -321l555 -324v-125z" />
<glyph unicode="=" horiz-adv-x="946" d="M113 340v119h721v-119h-721zM113 774v117h721v-117h-721z" />
<glyph unicode="&#x3e;" horiz-adv-x="946" d="M113 217v119l555 321l-555 324v125l721 -393v-103z" />
<glyph unicode="?" horiz-adv-x="825" d="M96 1292v142h498q86 0 132 -49.5t46 -143.5v-70q0 -66 -20.5 -111.5t-71.5 -94.5l-180 -172q-43 -43 -43 -107l-4 -377h-142l-4 375q-2 109 92 203l181 168q45 45 45 106v49q0 96 -93 97h-356q-49 0 -80 -15zM305 0v160h154v-160h-154z" />
<glyph unicode="@" horiz-adv-x="1503" d="M168 -8v1014q0 94 51 150t156 56h471q96 0 149.5 -54t53.5 -159v-825h-375q-82 0 -127 47t-45 127v305q0 80 45 128t127 48h246v162q0 100 -93 101h-438q-94 0 -94 -101v-981q0 -100 94 -100h776q92 0 92 100v826h125v-846q0 -94 -53 -150.5t-151 -56.5h-807 q-203 0 -203 209zM625 389q0 -102 94 -102h201v444h-203q-92 0 -92 -100v-242z" />
<glyph unicode="A" horiz-adv-x="1028" d="M18 0l404 1434h192l396 -1434h-168l-99 369h-464l-97 -369h-164zM299 477h424l-211 787z" />
<glyph unicode="B" horiz-adv-x="1138" d="M152 0v1434h614q102 0 153.5 -56.5t51.5 -152.5v-254q0 -215 -193 -217q193 -8 193 -222v-323q0 -96 -51.5 -152.5t-153.5 -56.5h-614zM301 127h428q92 0 92 100v355q0 116 -96 116h-424v-571zM301 811h424q96 0 96 115v280q0 100 -92 101h-428v-496z" />
<glyph unicode="C" horiz-adv-x="974" d="M158 209v1016q0 96 50 152.5t152 56.5h560v-150q-27 16 -80 16h-443q-92 0 -92 -100v-967q0 -100 92 -100h443q53 0 80 17v-150h-560q-102 0 -152 56.5t-50 152.5z" />
<glyph unicode="D" horiz-adv-x="1132" d="M158 0v1434h614q102 0 153.5 -56.5t51.5 -152.5v-1016q0 -96 -51.5 -152.5t-153.5 -56.5h-614zM305 133h430q92 0 92 100v967q0 100 -92 100h-430v-1167z" />
<glyph unicode="E" horiz-adv-x="976" d="M158 0v1434h731v-138q-29 11 -62 11h-522v-490h416q29 0 59 6v-137q-31 6 -59 6h-416v-565h563q33 0 60 10v-137h-770z" />
<glyph unicode="F" horiz-adv-x="905" d="M158 0v1434h731v-138q-29 10 -62 11h-522v-490h416q29 0 59 6v-137q-31 6 -59 6h-416v-692h-147z" />
<glyph unicode="G" horiz-adv-x="1130" d="M158 209v1016q0 96 50 152.5t152 56.5h584v-150q-31 16 -80 16h-467q-92 0 -92 -100v-967q0 -100 92 -100h338q92 0 92 100v459h-213q-29 0 -59 -6v137q31 -6 59 -6h363v-608q0 -96 -51.5 -152.5t-153.5 -56.5h-412q-102 0 -152 56.5t-50 152.5z" />
<glyph unicode="H" horiz-adv-x="1132" d="M158 0v1434h147v-617h522v617h150v-1434h-150v692h-522v-692h-147z" />
<glyph unicode="I" horiz-adv-x="462" d="M158 0v1434h147v-1434h-147z" />
<glyph unicode="J" horiz-adv-x="677" d="M35 0v143q25 -10 59 -10h185q92 0 92 100v1201h149v-1225q0 -96 -51 -152.5t-154 -56.5h-280z" />
<glyph unicode="K" horiz-adv-x="1081" d="M158 0v1434h151v-617h180q68 0 107 90l235 527h166l-262 -572q-31 -74 -106 -104q74 -23 114 -119l283 -639h-172l-256 600q-20 51 -44 71.5t-65 20.5h-180v-692h-151z" />
<glyph unicode="L" horiz-adv-x="933" d="M158 0v1434h147v-1307h553q35 0 60 10v-137h-760z" />
<glyph unicode="M" horiz-adv-x="1331" d="M158 0v1434h223l289 -895l293 895h213v-1434h-140v1260l-295 -883h-153l-291 883v-1260h-139z" />
<glyph unicode="N" horiz-adv-x="1148" d="M158 0v1434h166l530 -1178v1178h137v-1434h-166l-528 1178v-1178h-139z" />
<glyph unicode="O" horiz-adv-x="1132" d="M158 209v1016q0 96 50 152.5t152 56.5h412q102 0 153.5 -56.5t51.5 -152.5v-1016q0 -96 -51.5 -152.5t-153.5 -56.5h-412q-102 0 -152 56.5t-50 152.5zM305 233q0 -100 92 -100h338q92 0 92 100v967q0 100 -92 100h-338q-92 0 -92 -100v-967z" />
<glyph unicode="P" horiz-adv-x="1073" d="M158 0v1434h614q102 0 153.5 -56.5t51.5 -152.5v-365q0 -96 -50 -152.5t-153 -56.5h-469v-651h-147zM305 784h430q92 0 92 101v315q0 100 -92 100h-430v-516z" />
<glyph unicode="Q" horiz-adv-x="1132" d="M158 209v1016q0 96 50 152.5t152 56.5h412q102 0 153.5 -56.5t51.5 -152.5v-1016q0 -92 -51.5 -150.5t-143.5 -58.5h-61l151 -410h-127l-133 410h-252q-102 0 -152 56.5t-50 152.5zM305 233q0 -100 92 -100h178l-71 207h90l74 -207h69q90 0 90 100v967q0 100 -92 100 h-338q-92 0 -92 -100v-967z" />
<glyph unicode="R" horiz-adv-x="1157" d="M158 0v1434h614q102 0 153.5 -56.5t51.5 -152.5v-322q0 -104 -51.5 -154.5t-122.5 -50.5h-19l265 -698h-162l-244 688h-338v-688h-147zM305 817h430q92 0 92 101v282q0 100 -92 100h-430v-483z" />
<glyph unicode="S" horiz-adv-x="1019" d="M117 0v150q31 -16 80 -17h448q94 0 94 103v147q0 65 -45 104l-461 375q-109 90 -108 223v140q0 98 50 153.5t153 55.5h522v-150q-31 16 -80 16h-405q-92 0 -93 -102v-111q0 -66 45 -104l461 -375q61 -49 85 -100t24 -123v-176q0 -98 -50.5 -153.5t-152.5 -55.5h-567z" />
<glyph unicode="T" horiz-adv-x="952" d="M55 1290v144h842v-144q-29 10 -61 10h-285v-1300h-150v1300h-284q-33 0 -62 -10z" />
<glyph unicode="U" horiz-adv-x="1132" d="M158 209v1225h147v-1201q0 -100 92 -100h338q92 0 92 100v1201h150v-1225q0 -96 -51.5 -152.5t-153.5 -56.5h-412q-102 0 -152 56.5t-50 152.5z" />
<glyph unicode="V" horiz-adv-x="1028" d="M18 1434h160l338 -1264l342 1264h152l-404 -1434h-192z" />
<glyph unicode="W" horiz-adv-x="1566" d="M37 1434h153l277 -1241l250 1241h141l244 -1241l280 1241h146l-340 -1434h-176l-230 1167l-235 -1167h-176z" />
<glyph unicode="X" horiz-adv-x="1093" d="M18 0l435 764l-375 670h180l291 -566l295 566h172l-375 -666l436 -768h-178l-354 651l-355 -651h-172z" />
<glyph unicode="Y" horiz-adv-x="1071" d="M2 1434h180l359 -660l356 660h172l-455 -818v-616h-147v616z" />
<glyph unicode="Z" horiz-adv-x="1017" d="M92 0v66l651 1234h-569q-39 0 -65 -10v144h825v-60l-655 -1247h579q39 0 66 10v-137h-832z" />
<glyph unicode="[" horiz-adv-x="784" d="M170 -410v1844h428v-138q-29 10 -61 11h-218v-1590h220q35 0 59 11v-138h-428z" />
<glyph unicode="\" horiz-adv-x="870" d="M0 1434h158l712 -1434h-155z" />
<glyph unicode="]" horiz-adv-x="714" d="M121 -272q25 -10 59 -11h219v1590h-217q-33 0 -61 -11v138h428v-1844h-428v138z" />
<glyph unicode="^" horiz-adv-x="739" d="M20 885l308 549h84l309 -549h-107l-247 405l-246 -405h-101z" />
<glyph unicode="_" horiz-adv-x="1480" d="M117 -156h1247v-123h-1247v123z" />
<glyph unicode="`" horiz-adv-x="684" d="M164 1434h143l213 -285h-110z" />
<glyph unicode="a" horiz-adv-x="946" d="M129 209v221q0 96 51.5 151.5t153.5 55.5h330v168q0 100 -91 100h-335q-53 0 -80 -16v135h442q102 0 153.5 -55.5t51.5 -151.5v-817h-471q-102 0 -153.5 56.5t-51.5 152.5zM268 221q0 -102 94 -102h302v413h-302q-94 0 -94 -100v-211z" />
<glyph unicode="b" d="M141 0v1434h142v-410h331q102 0 153.5 -56.5t51.5 -152.5v-606q0 -96 -51 -152.5t-154 -56.5h-473zM283 119h303q92 0 92 100v584q0 100 -92 100h-303v-784z" />
<glyph unicode="c" horiz-adv-x="792" d="M141 209v606q0 96 51.5 152.5t153.5 56.5h385v-137q-27 14 -80 14h-272q-96 0 -96 -102v-574q0 -104 96 -104h272q53 0 80 14v-135h-385q-102 0 -153.5 56.5t-51.5 152.5z" />
<glyph unicode="d" d="M141 209v606q0 96 51.5 152.5t153.5 56.5h332v410h141v-1434h-473q-102 0 -153.5 56.5t-51.5 152.5zM283 219q0 -100 92 -100h303v784h-303q-92 0 -92 -100v-584z" />
<glyph unicode="e" horiz-adv-x="929" d="M141 209v606q0 96 51.5 152.5t155.5 56.5h252q102 0 153.5 -56.5t51.5 -152.5v-283h-522v-315q0 -45 24.5 -71.5t67.5 -26.5h330q49 0 79 16v-135h-438q-102 0 -153.5 56.5t-51.5 152.5zM283 637h389v168q0 102 -92 102h-205q-92 0 -92 -102v-168z" />
<glyph unicode="f" horiz-adv-x="563" d="M141 0v1225q0 96 51.5 152.5t155.5 56.5h207v-138q-31 16 -80 17h-96q-96 0 -96 -105v-184h272v-121h-272v-903h-142z" />
<glyph unicode="g" d="M141 209v606q0 96 51.5 152.5t153.5 56.5h473v-1225q0 -96 -51 -152.5t-154 -56.5h-438v136q31 -16 80 -17h326q96 1 96 101v190h-332q-102 0 -153.5 56.5t-51.5 152.5zM283 221q0 -102 92 -102h303v784h-303q-92 0 -92 -102v-580z" />
<glyph unicode="h" d="M141 0v1434h142v-410h329q104 0 155.5 -56.5t51.5 -152.5v-815h-141v803q0 100 -92 100h-303v-903h-142z" />
<glyph unicode="i" horiz-adv-x="423" d="M141 0v1024h142v-1024h-142zM141 1171v156h142v-156h-142z" />
<glyph unicode="j" horiz-adv-x="423" d="M66 -410q75 182 75 404v6v1024h142v-1024q0 -223 -68 -410h-149zM141 1171v156h142v-156h-142z" />
<glyph unicode="k" horiz-adv-x="913" d="M141 0v1434h142v-811h155q51 0 86 71l150 330h151l-168 -365q-33 -72 -84 -90q51 -25 80 -94l197 -475h-160l-164 428q-33 76 -86 76h-157v-504h-142z" />
<glyph unicode="l" horiz-adv-x="423" d="M141 0v1434h142v-1434h-142z" />
<glyph unicode="m" horiz-adv-x="1386" d="M141 0v1024h365q176 0 194 -135q8 59 53.5 97t116.5 38h168q100 0 152.5 -55.5t52.5 -151.5v-817h-139v803q0 100 -92 100h-156q-92 0 -92 -100v-803h-139v803q0 100 -93 100h-249v-903h-142z" />
<glyph unicode="n" d="M141 0v1024h473q100 0 152.5 -56.5t52.5 -152.5v-815h-141v803q0 100 -92 100h-303v-903h-142z" />
<glyph unicode="o" d="M141 209v606q0 96 51.5 152.5t153.5 56.5h268q102 0 153.5 -56.5t51.5 -152.5v-606q0 -96 -51 -152.5t-154 -56.5h-268q-102 0 -153.5 56.5t-51.5 152.5zM283 219q0 -100 92 -100h211q92 0 92 100v584q0 100 -92 100h-211q-92 0 -92 -100v-584z" />
<glyph unicode="p" d="M141 -410v1434h473q102 0 153.5 -57.5t51.5 -151.5v-606q0 -96 -52 -152.5t-153 -56.5h-331v-410h-142zM283 119h303q92 0 92 100v584q0 100 -92 100h-303v-784z" />
<glyph unicode="q" d="M141 209v606q0 98 51.5 153.5t155.5 55.5h471v-1434h-141v410h-332q-102 0 -153.5 55.5t-51.5 153.5zM283 219q0 -100 92 -100h303v784h-303q-92 0 -92 -100v-584z" />
<glyph unicode="r" horiz-adv-x="618" d="M141 0v1024h123v-109q23 109 146 109h182v-145q-31 16 -74 16h-119q-117 0 -116 -143v-752h-142z" />
<glyph unicode="s" horiz-adv-x="833" d="M109 0v135q27 -14 79 -14h312q41 0 65.5 25.5t24.5 70.5v43q0 80 -66 123l-262 166q-86 53 -119.5 101t-33.5 128v37q0 98 52 153.5t152 55.5h385v-137q-27 16 -80 16h-284q-41 0 -65.5 -25.5t-24.5 -70.5v-27q0 -61 73 -112l271 -168q76 -47 106.5 -94.5t30.5 -131.5 v-65q0 -100 -52 -154.5t-153 -54.5h-411z" />
<glyph unicode="t" horiz-adv-x="620" d="M141 209v1010l142 81v-276h270v-121h-270v-676q0 -104 96 -104h94q53 0 80 14v-137h-207q-102 0 -153.5 56.5t-51.5 152.5z" />
<glyph unicode="u" d="M141 209v815h142v-805q0 -100 92 -100h303v905h141v-1024h-473q-102 0 -153.5 56.5t-51.5 152.5z" />
<glyph unicode="v" horiz-adv-x="839" d="M25 1024h159l240 -879l238 879h153l-311 -1024h-170z" />
<glyph unicode="w" horiz-adv-x="1308" d="M41 1024h158l209 -874l174 874h153l174 -874l207 874h154l-281 -1024h-168l-166 829l-170 -829h-170z" />
<glyph unicode="x" horiz-adv-x="880" d="M43 1024h166l233 -403l234 403h160l-316 -510l316 -514h-164l-234 401l-233 -401h-160l315 510z" />
<glyph unicode="y" horiz-adv-x="839" d="M25 1024h159l240 -887l238 887h153l-438 -1434h-160l141 410h-24z" />
<glyph unicode="z" horiz-adv-x="837" d="M76 0v68l504 835h-422q-39 0 -66 -10v131h672v-57l-508 -846h426q39 0 66 10v-131h-672z" />
<glyph unicode="{" horiz-adv-x="677" d="M55 496v100q51 0 84 31.5t33 91.5v352q0 203 90 283t322 80v-127q-162 0 -213.5 -49.5t-51.5 -178.5v-389q0 -47 -28.5 -87t-69.5 -56q41 -16 69.5 -56t28.5 -88v-456q0 -131 52.5 -182.5t212.5 -51.5v-123q-227 0 -319.5 79t-92.5 272v430q0 59 -33 92t-84 33z" />
<glyph unicode="|" horiz-adv-x="440" d="M150 -410v1844h141v-1844h-141z" />
<glyph unicode="}" horiz-adv-x="677" d="M94 -287q160 0 212 51.5t52 182.5v456q0 47 29 87t70 57q-41 16 -70 56t-29 87v389q0 129 -51 178.5t-213 49.5v127q231 0 321.5 -80t90.5 -283v-352q0 -59 31.5 -91t85.5 -32v-100q-51 0 -84 -33t-33 -92v-430q0 -193 -92 -272t-320 -79v123z" />
<glyph unicode="~" horiz-adv-x="968" d="M88 881v57q0 127 55.5 196.5t147.5 69.5q72 0 143.5 -50t133 -100t110.5 -50q59 0 83.5 36.5t24.5 155.5h95v-76q0 -248 -197 -248q-55 0 -112.5 31t-97.5 69t-88 68.5t-89 30.5q-61 0 -87 -37.5t-26 -152.5h-96z" />
<glyph unicode="&#xa1;" horiz-adv-x="409" d="M129 864v160h156v-160h-156zM133 -410l4 1125h139l5 -1125h-148z" />
<glyph unicode="&#xa2;" horiz-adv-x="776" d="M96 416v608q0 98 53.5 153.5t129.5 55.5h90v201h123v-201h194v-137q-27 14 -80 14h-272q-96 0 -96 -102v-574q0 -104 96 -104h272q53 0 80 14v-135h-194v-209h-123v209h-90q-78 0 -130.5 55t-52.5 152z" />
<glyph unicode="&#xa3;" horiz-adv-x="948" d="M78 651v117h80v457q0 209 202 209h289v-150q-27 16 -80 16h-168q-96 0 -96 -104v-428h328v-117h-328v-522h535q53 0 80 16v-145h-762v651h-80z" />
<glyph unicode="&#xa4;" horiz-adv-x="1050" d="M41 0l180 301q-35 45 -35 113v594q0 74 37 120l-182 306h143l152 -258q31 12 72 12h237q43 0 78 -14l154 260h143l-191 -316q33 -45 33 -110v-594q0 -61 -31 -105l189 -309h-143l-152 256q-31 -18 -80 -18h-237q-45 0 -74 14l-150 -252h-143zM326 461q0 -47 24.5 -74 t67.5 -27h211q92 1 92 101v502q0 100 -92 100h-211q-92 0 -92 -100v-502z" />
<glyph unicode="&#xa5;" horiz-adv-x="1071" d="M-4 1434h184l361 -660l358 660h176l-461 -818v-100h152v-106h-152v-410h-147v410h-158v106h158v100z" />
<glyph unicode="&#xa6;" horiz-adv-x="440" d="M150 358h139v-768h-139v768zM150 664v770h139v-770h-139z" />
<glyph unicode="&#xa7;" horiz-adv-x="888" d="M109 537v680q0 104 54 160.5t154 56.5h424v-138q-31 16 -79 17h-328q-41 0 -65.5 -25.5t-24.5 -70.5v-50q0 -63 73 -116l351 -275q61 -49 86.5 -97t25.5 -132v-748q0 -209 -200 -209h-447v136q27 -14 80 -15h344q88 0 88 96v93q0 82 -63 129l-342 272 q-72 55 -101.5 105.5t-29.5 130.5zM244 522q0 -78 78 -135l258 -192q42 -33 65 -80v432q0 100 -70 151l-262 195q-53 39 -69 86v-457z" />
<glyph unicode="&#xa8;" horiz-adv-x="722" d="M160 1212v146h112v-146h-112zM451 1212v146h112v-146h-112z" />
<glyph unicode="&#xa9;" horiz-adv-x="1368" d="M160 209v1016q0 96 51 152.5t154 56.5h639q100 0 151 -56.5t51 -152.5v-1016q0 -96 -51 -152.5t-151 -56.5h-639q-102 0 -153.5 56.5t-51.5 152.5zM272 201q0 -104 97 -105h630q95 1 95 105v1032q0 104 -95 104h-630q-96 0 -97 -104v-1032zM401 360v719q0 63 34 99 t100 36h442v-106q-18 10 -57 10h-334q-76 0 -76 -84v-631q0 -81 76 -81h334q39 0 57 10v-103h-449q-61 0 -94 36t-33 95z" />
<glyph unicode="&#xaa;" horiz-adv-x="946" d="M129 0v117h676v-117h-676zM129 618v222q0 96 51.5 151.5t153.5 55.5h330v167q0 100 -91 101h-335q-53 0 -80 -17v136h442q102 0 153.5 -55.5t51.5 -151.5v-817h-471q-102 0 -153.5 56t-51.5 152zM268 631q0 -102 94 -103h302v414h-302q-94 0 -94 -100v-211z" />
<glyph unicode="&#xab;" horiz-adv-x="1226" d="M82 547v115l549 413v-137l-406 -330l406 -329v-146zM596 547v115l549 413v-137l-406 -330l406 -329v-146z" />
<glyph unicode="&#xac;" horiz-adv-x="950" d="M113 535v122h721v-657h-144v535h-577z" />
<glyph unicode="&#xad;" horiz-adv-x="618" d="M109 535v124h401v-124h-401z" />
<glyph unicode="&#xae;" horiz-adv-x="1368" d="M160 209v1016q0 96 51 152.5t154 56.5h639q100 0 151 -56.5t51 -152.5v-1016q0 -96 -51 -152.5t-151 -56.5h-639q-102 0 -153.5 56.5t-51.5 152.5zM272 201q0 -104 97 -105h630q95 1 95 105v1032q0 104 -95 104h-630q-96 0 -97 -104v-1032zM401 229v985h437 q59 0 93 -35.5t34 -97.5v-252q0 -63 -31 -101t-90 -38h-17l195 -461h-113l-180 461h-223v-461h-105zM506 778h282q72 0 72 80v184q0 80 -72 80h-282v-344z" />
<glyph unicode="&#xaf;" horiz-adv-x="763" d="M164 1221v104h436v-104h-436z" />
<glyph unicode="&#xb0;" horiz-adv-x="677" d="M104 932v313q0 84 46.5 136.5t142.5 52.5h96q92 0 139 -52.5t47 -136.5v-311q0 -92 -48 -143.5t-142 -51.5h-98q-86 0 -134.5 50.5t-48.5 142.5zM215 946q0 -98 90 -98h70q90 0 90 98v283q0 98 -90 98h-70q-90 0 -90 -98v-283z" />
<glyph unicode="&#xb1;" horiz-adv-x="946" d="M113 0v123h721v-123h-721zM113 594v119h301v301h118v-301h302v-119h-302v-301h-118v301h-301z" />
<glyph unicode="&#xb2;" horiz-adv-x="708" d="M94 664v104q0 170 125 233l221 111q47 25 47 90v37q0 45 -15 64.5t-58 19.5h-221q-43 0 -74 -16v127h303q106 0 151 -45.5t45 -149.5v-37q0 -88 -27.5 -123t-121.5 -82l-197 -98q-53 -25 -53 -90v-33h307q53 0 80 15v-127h-512z" />
<glyph unicode="&#xb3;" horiz-adv-x="708" d="M111 668v123q27 -10 57 -11h209q49 0 67.5 18.5t18.5 67.5v33q0 63 -14.5 82.5t-57.5 19.5h-149q-29 0 -58 -6v123q29 -6 58 -6h149q41 0 56.5 20.5t15.5 77.5v23q0 49 -18.5 67.5t-65.5 18.5h-209q-31 0 -59 -10v125h295q188 0 188 -164v-41q0 -162 -178 -168 q98 -4 138 -41t40 -129v-35q0 -96 -43 -142t-145 -46h-295z" />
<glyph unicode="&#xb4;" horiz-adv-x="684" d="M164 1149l213 285h143l-246 -285h-110z" />
<glyph unicode="&#xb6;" horiz-adv-x="1073" d="M158 840v417q0 80 45 128.5t127 48.5h647v-1434h-150v657h-497q-82 0 -127 48.5t-45 134.5z" />
<glyph unicode="&#xb7;" horiz-adv-x="407" d="M113 508v176h170v-176h-170z" />
<glyph unicode="&#xb8;" horiz-adv-x="706" d="M154 -410l26 78h178q47 0 67.5 19.5t20.5 66.5v17q0 47 -20 66.5t-66 19.5h-114l53 157h90l-33 -94h47q80 0 117 -36t37 -109v-31q0 -154 -154 -154h-249z" />
<glyph unicode="&#xb9;" horiz-adv-x="708" d="M102 1161v125l338 172v-678h168v-112h-483v112h182v502z" />
<glyph unicode="&#xba;" d="M141 0v117h678v-117h-678zM141 618v607q0 96 51.5 152.5t153.5 56.5h268q102 0 153.5 -56.5t51.5 -152.5v-607q0 -96 -51 -152t-154 -56h-268q-102 0 -153.5 56t-51.5 152zM283 629q0 -100 92 -101h211q92 1 92 101v583q0 100 -92 101h-211q-92 0 -92 -101v-583z" />
<glyph unicode="&#xbb;" horiz-adv-x="1226" d="M82 133v137l405 330l-405 330v145l549 -413v-115zM596 133v137l405 330l-405 330v145l549 -413v-115z" />
<glyph unicode="&#xbc;" horiz-adv-x="1589" d="M88 1161v125l338 172v-678h168v-112h-483v112h182v502zM328 0l805 1434h149l-803 -1434h-151zM877 156v92l337 516h138v-498h88q29 0 59 6v-122q-31 6 -59 6h-88v-156h-123v156h-352zM1016 266h213v346z" />
<glyph unicode="&#xbd;" horiz-adv-x="1589" d="M88 1161v125l338 172v-678h168v-112h-483v112h182v502zM319 0l803 1434h152l-805 -1434h-150zM969 0v104q0 170 125 234l221 111q47 25 47 90v36q0 45 -15.5 64.5t-58.5 19.5h-221q-43 0 -74 -16v127h303q104 0 150.5 -45t46.5 -150v-36q0 -88 -27.5 -123t-122.5 -82 l-196 -98q-53 -25 -53 -91v-32h307q53 0 80 14v-127h-512z" />
<glyph unicode="&#xbe;" horiz-adv-x="1589" d="M145 668v123q25 -10 58 -11h209q49 0 67.5 18.5t18.5 67.5v33q0 63 -14.5 82.5t-57.5 19.5h-150q-31 0 -57 -6v123q29 -6 57 -6h150q41 0 56.5 20.5t15.5 77.5v23q0 49 -18.5 67.5t-65.5 18.5h-209q-31 0 -60 -10v125h295q188 0 189 -164v-41q0 -162 -178 -168 q98 -4 138 -41t40 -129v-35q0 -96 -43 -142t-146 -46h-295zM328 0l805 1434h149l-803 -1434h-151zM877 156v92l337 516h138v-498h88q29 0 59 6v-122q-31 6 -59 6h-88v-156h-123v156h-352zM1016 266h213v346z" />
<glyph unicode="&#xbf;" horiz-adv-x="825" d="M98 -147q0 115 92 206l181 172q45 43 45 107l4 377h139l4 -375q2 -111 -92 -203l-178 -168q-45 -43 -45 -106v-49q0 -45 24.5 -71t65.5 -26h356q49 0 80 15v-142h-498q-86 0 -132 49.5t-46 143.5v70zM412 864v160h153v-160h-153z" />
<glyph unicode="&#xc0;" horiz-adv-x="1028" d="M18 0l404 1434h192l396 -1434h-168l-99 369h-464l-97 -369h-164zM281 1698h143l213 -205h-111zM299 477h424l-211 787z" />
<glyph unicode="&#xc1;" horiz-adv-x="1028" d="M18 0l404 1434h192l396 -1434h-168l-99 369h-464l-97 -369h-164zM299 477h424l-211 787zM395 1493l215 205h138l-246 -205h-107z" />
<glyph unicode="&#xc2;" horiz-adv-x="1028" d="M18 0l404 1434h192l396 -1434h-168l-99 369h-464l-97 -369h-164zM254 1493l201 205h110l201 -205h-109l-149 131l-148 -131h-106zM299 477h424l-211 787z" />
<glyph unicode="&#xc3;" horiz-adv-x="1028" d="M18 0l404 1434h192l396 -1434h-168l-99 369h-464l-97 -369h-164zM211 1493v41q0 168 162 168q66 0 157 -64.5t134 -64.5t61 24.5t18 100.5h76v-37q0 -94 -39 -133t-116 -39q-66 0 -158 64.5t-133 64.5q-45 0 -65.5 -25.5t-20.5 -99.5h-76zM299 477h424l-211 787z" />
<glyph unicode="&#xc4;" horiz-adv-x="1028" d="M18 0l404 1434h192l396 -1434h-168l-99 369h-464l-97 -369h-164zM299 477h424l-211 787zM313 1542v115h113v-115h-113zM604 1542v115h113v-115h-113z" />
<glyph unicode="&#xc5;" horiz-adv-x="1028" d="M18 0l404 1434h192l396 -1434h-168l-99 369h-464l-97 -369h-164zM289 1575v43q0 45 40 75.5t117 30.5h136q74 0 115.5 -31.5t41.5 -76.5v-39q0 -45 -41 -73.5t-116 -28.5h-136q-78 0 -117.5 28.5t-39.5 71.5zM299 477h424l-211 787zM383 1587q0 -53 84 -53h92q84 0 84 53 v17q0 57 -84 57h-92q-84 0 -84 -57v-17z" />
<glyph unicode="&#xc6;" horiz-adv-x="1581" d="M-80 0l772 1434h803v-138q-29 10 -61 11h-523v-490h414q29 0 59 6v-137q-31 6 -59 6h-414v-565h562q33 0 59 10v-137h-770v369h-471l-199 -369h-172zM334 477h428v791z" />
<glyph unicode="&#xc7;" horiz-adv-x="974" d="M158 209v1016q0 96 50 152.5t152 56.5h560v-150q-27 16 -80 16h-443q-92 0 -92 -100v-967q0 -100 92 -100h443q53 0 80 17v-150h-283l-27 -80h47q80 0 117 -36t37 -109v-31q0 -154 -154 -154h-249l26 78h178q47 0 67.5 19.5t20.5 66.5v17q0 47 -20.5 66.5t-65.5 19.5 h-114l47 143h-187q-102 0 -152 56.5t-50 152.5z" />
<glyph unicode="&#xc8;" horiz-adv-x="976" d="M158 0v1434h731v-138q-29 11 -62 11h-522v-490h416q29 0 59 6v-137q-31 6 -59 6h-416v-565h563q33 0 60 10v-137h-770zM319 1698h144l213 -205h-111z" />
<glyph unicode="&#xc9;" horiz-adv-x="976" d="M158 0v1434h731v-138q-29 11 -62 11h-522v-490h416q29 0 59 6v-137q-31 6 -59 6h-416v-565h563q33 0 60 10v-137h-770zM428 1493l215 205h137l-245 -205h-107z" />
<glyph unicode="&#xca;" horiz-adv-x="976" d="M158 0v1434h731v-138q-29 11 -62 11h-522v-490h416q29 0 59 6v-137q-31 6 -59 6h-416v-565h563q33 0 60 10v-137h-770zM281 1493l200 205h111l201 -205h-109l-149 131l-148 -131h-106z" />
<glyph unicode="&#xcb;" horiz-adv-x="976" d="M158 0v1434h731v-138q-29 11 -62 11h-522v-490h416q29 0 59 6v-137q-31 6 -59 6h-416v-565h563q33 0 60 10v-137h-770zM336 1542v115h113v-115h-113zM627 1542v115h112v-115h-112z" />
<glyph unicode="&#xcc;" horiz-adv-x="462" d="M-45 1698h143l213 -205h-110zM158 0v1434h147v-1434h-147z" />
<glyph unicode="&#xcd;" horiz-adv-x="462" d="M123 1493l215 205h137l-246 -205h-106zM158 0v1434h147v-1434h-147z" />
<glyph unicode="&#xce;" horiz-adv-x="462" d="M-25 1493l201 205h111l200 -205h-108l-150 131l-147 -131h-107zM158 0v1434h147v-1434h-147z" />
<glyph unicode="&#xcf;" horiz-adv-x="462" d="M31 1542v115h112v-115h-112zM158 0v1434h147v-1434h-147zM322 1542v115h112v-115h-112z" />
<glyph unicode="&#xd0;" horiz-adv-x="1132" d="M37 692v105h119v637h616q100 0 151.5 -69t51.5 -163v-989q0 -92 -52.5 -152.5t-150.5 -60.5h-616v692h-119zM305 133h428q92 0 92 100v965q0 100 -90 100h-430v-501h168v-105h-168v-559z" />
<glyph unicode="&#xd1;" horiz-adv-x="1148" d="M158 0v1434h166l530 -1178v1178h137v-1434h-166l-528 1178v-1178h-139zM297 1493v41q0 168 162 168q66 0 157 -64.5t134 -64.5t61 24.5t18 100.5h76v-37q0 -94 -39 -133t-116 -39q-66 0 -158 64.5t-133 64.5q-45 0 -65.5 -25.5t-20.5 -99.5h-76z" />
<glyph unicode="&#xd2;" horiz-adv-x="1132" d="M158 209v1016q0 96 50 152.5t152 56.5h412q102 0 153.5 -56.5t51.5 -152.5v-1016q0 -96 -51.5 -152.5t-153.5 -56.5h-412q-102 0 -152 56.5t-50 152.5zM305 233q0 -100 92 -100h338q92 0 92 100v967q0 100 -92 100h-338q-92 0 -92 -100v-967zM342 1698h143l213 -205h-110 z" />
<glyph unicode="&#xd3;" horiz-adv-x="1132" d="M158 209v1016q0 96 50 152.5t152 56.5h412q102 0 153.5 -56.5t51.5 -152.5v-1016q0 -96 -51.5 -152.5t-153.5 -56.5h-412q-102 0 -152 56.5t-50 152.5zM305 233q0 -100 92 -100h338q92 0 92 100v967q0 100 -92 100h-338q-92 0 -92 -100v-967zM467 1493l215 205h137 l-246 -205h-106z" />
<glyph unicode="&#xd4;" horiz-adv-x="1132" d="M158 209v1016q0 96 50 152.5t152 56.5h412q102 0 153.5 -56.5t51.5 -152.5v-1016q0 -96 -51.5 -152.5t-153.5 -56.5h-412q-102 0 -152 56.5t-50 152.5zM305 233q0 -100 92 -100h338q92 0 92 100v967q0 100 -92 100h-338q-92 0 -92 -100v-967zM311 1493l201 205h111 l200 -205h-108l-150 131l-147 -131h-107z" />
<glyph unicode="&#xd5;" horiz-adv-x="1132" d="M158 209v1016q0 96 50 152.5t152 56.5h412q102 0 153.5 -56.5t51.5 -152.5v-1016q0 -96 -51.5 -152.5t-153.5 -56.5h-412q-102 0 -152 56.5t-50 152.5zM264 1493v41q0 168 162 168q66 0 157 -64.5t134 -64.5t61.5 24.5t18.5 100.5h75v-37q0 -94 -38.5 -133t-116.5 -39 q-66 0 -158 64.5t-133 64.5q-45 0 -65.5 -25.5t-20.5 -99.5h-76zM305 233q0 -100 92 -100h338q92 0 92 100v967q0 100 -92 100h-338q-92 0 -92 -100v-967z" />
<glyph unicode="&#xd6;" horiz-adv-x="1132" d="M158 209v1016q0 96 50 152.5t152 56.5h412q102 0 153.5 -56.5t51.5 -152.5v-1016q0 -96 -51.5 -152.5t-153.5 -56.5h-412q-102 0 -152 56.5t-50 152.5zM305 233q0 -100 92 -100h338q92 0 92 100v967q0 100 -92 100h-338q-92 0 -92 -100v-967zM367 1542v115h112v-115h-112 zM657 1542v115h113v-115h-113z" />
<glyph unicode="&#xd7;" horiz-adv-x="946" d="M176 383l215 213l-215 215l82 82l215 -215l213 215l84 -82l-215 -215l215 -213l-84 -82l-213 213l-215 -213z" />
<glyph unicode="&#xd8;" horiz-adv-x="1140" d="M-10 0l170 225v1000q0 96 51 152.5t154 56.5h411q74 0 121 -37t55 -97l101 134h100l-174 -230v-995q0 -96 -50 -152.5t-153 -56.5h-411q-74 0 -120.5 36t-56.5 95l-98 -131h-100zM309 233q0 -100 92 -100h336q94 0 94 100v766l-522 -706v-60zM309 430l522 707v63 q0 100 -92 100h-338q-92 0 -92 -100v-770z" />
<glyph unicode="&#xd9;" horiz-adv-x="1132" d="M158 209v1225h147v-1201q0 -100 92 -100h338q92 0 92 100v1201h150v-1225q0 -96 -51.5 -152.5t-153.5 -56.5h-412q-102 0 -152 56.5t-50 152.5zM332 1698h143l213 -205h-110z" />
<glyph unicode="&#xda;" horiz-adv-x="1132" d="M158 209v1225h147v-1201q0 -100 92 -100h338q92 0 92 100v1201h150v-1225q0 -96 -51.5 -152.5t-153.5 -56.5h-412q-102 0 -152 56.5t-50 152.5zM461 1493l215 205h137l-246 -205h-106z" />
<glyph unicode="&#xdb;" horiz-adv-x="1132" d="M158 209v1225h147v-1201q0 -100 92 -100h338q92 0 92 100v1201h150v-1225q0 -96 -51.5 -152.5t-153.5 -56.5h-412q-102 0 -152 56.5t-50 152.5zM311 1493l201 205h111l200 -205h-108l-150 131l-147 -131h-107z" />
<glyph unicode="&#xdc;" horiz-adv-x="1132" d="M158 209v1225h147v-1201q0 -100 92 -100h338q92 0 92 100v1201h150v-1225q0 -96 -51.5 -152.5t-153.5 -56.5h-412q-102 0 -152 56.5t-50 152.5zM367 1542v115h112v-115h-112zM657 1542v115h113v-115h-113z" />
<glyph unicode="&#xdd;" horiz-adv-x="1071" d="M2 1434h180l359 -660l356 660h172l-455 -818v-616h-147v616zM442 1493l215 205h138l-246 -205h-107z" />
<glyph unicode="&#xde;" horiz-adv-x="1073" d="M156 0v1434h149v-299h453q217 0 217 -209v-367q0 -207 -215 -207h-455v-352h-149zM305 485h430q90 0 90 101v313q0 100 -90 100h-430v-514z" />
<glyph unicode="&#xdf;" horiz-adv-x="995" d="M141 0v1227q0 94 52.5 150.5t154.5 56.5h342q100 0 152.5 -52.5t52.5 -146.5v-82q0 -82 -29.5 -129t-97.5 -92l-109 -74q-74 -53 -73 -123q0 -63 73 -114l109 -74q68 -43 95.5 -92t27.5 -129v-117q0 -102 -54.5 -155.5t-148.5 -53.5h-264v135q25 -14 78 -14h166 q88 0 88 96v100q0 45 -13.5 70t-50.5 51l-102 72q-74 51 -105.5 99t-31.5 128q0 76 29.5 123t107.5 103l98 75q37 27 51.5 52.5t14.5 70.5v56q0 96 -88 96h-287q-96 0 -96 -105v-1208h-142z" />
<glyph unicode="&#xe0;" horiz-adv-x="946" d="M129 209v221q0 96 51.5 151.5t153.5 55.5h330v168q0 100 -91 100h-335q-53 0 -80 -16v135h442q102 0 153.5 -55.5t51.5 -151.5v-817h-471q-102 0 -153.5 56.5t-51.5 152.5zM231 1434h144l213 -285h-111zM268 221q0 -102 94 -102h302v413h-302q-94 0 -94 -100v-211z" />
<glyph unicode="&#xe1;" horiz-adv-x="946" d="M129 209v221q0 96 51.5 151.5t153.5 55.5h330v168q0 100 -91 100h-335q-53 0 -80 -16v135h442q102 0 153.5 -55.5t51.5 -151.5v-817h-471q-102 0 -153.5 56.5t-51.5 152.5zM268 221q0 -102 94 -102h302v413h-302q-94 0 -94 -100v-211zM330 1149l213 285h143l-246 -285 h-110z" />
<glyph unicode="&#xe2;" horiz-adv-x="946" d="M129 209v221q0 96 51.5 151.5t153.5 55.5h330v168q0 100 -91 100h-335q-53 0 -80 -16v135h442q102 0 153.5 -55.5t51.5 -151.5v-817h-471q-102 0 -153.5 56.5t-51.5 152.5zM213 1149l201 285h110l201 -285h-109l-149 192l-148 -192h-106zM268 221q0 -102 94 -102h302v413 h-302q-94 0 -94 -100v-211z" />
<glyph unicode="&#xe3;" horiz-adv-x="946" d="M129 209v221q0 96 51.5 151.5t153.5 55.5h330v168q0 100 -91 100h-335q-53 0 -80 -16v135h442q102 0 153.5 -55.5t51.5 -151.5v-817h-471q-102 0 -153.5 56.5t-51.5 152.5zM164 1151v55q0 229 162 230q66 0 156.5 -90.5t133.5 -90.5t61.5 35t18.5 140h76v-52 q0 -127 -39 -180t-117 -53q-51 0 -105 45t-101.5 90t-83.5 45q-45 0 -65.5 -37t-20.5 -137h-76zM268 221q0 -102 94 -102h302v413h-302q-94 0 -94 -100v-211z" />
<glyph unicode="&#xe4;" horiz-adv-x="946" d="M129 209v221q0 96 51.5 151.5t153.5 55.5h330v168q0 100 -91 100h-335q-53 0 -80 -16v135h442q102 0 153.5 -55.5t51.5 -151.5v-817h-471q-102 0 -153.5 56.5t-51.5 152.5zM266 1212v146h113v-146h-113zM268 221q0 -102 94 -102h302v413h-302q-94 0 -94 -100v-211z M557 1212v146h113v-146h-113z" />
<glyph unicode="&#xe5;" horiz-adv-x="946" d="M129 209v221q0 96 51.5 151.5t153.5 55.5h330v168q0 100 -91 100h-335q-53 0 -80 -16v135h442q102 0 153.5 -55.5t51.5 -151.5v-817h-471q-102 0 -153.5 56.5t-51.5 152.5zM242 1274v59q0 139 157 140h136q158 0 157 -140v-57q0 -141 -157 -141h-136q-158 0 -157 139z M268 221q0 -102 94 -102h302v413h-302q-94 0 -94 -100v-211zM336 1286q0 -43 19.5 -60.5t64.5 -17.5h92q45 0 64.5 17.5t19.5 60.5v31q0 45 -19.5 62.5t-64.5 17.5h-92q-45 0 -64.5 -17.5t-19.5 -62.5v-31z" />
<glyph unicode="&#xe6;" horiz-adv-x="1452" d="M129 209v221q0 96 51 151.5t154 55.5h330v168q0 100 -91 100h-335q-53 0 -80 -16v135h430q51 0 93 -24.5t58 -65.5q41 90 154 90h227q104 0 155.5 -56.5t51.5 -152.5v-283h-522v-315q0 -98 90 -98h332q49 0 80 14v-133h-414q-113 0 -154 90q-36 -90 -151 -90h-254 q-102 0 -153.5 56.5t-51.5 152.5zM268 221q0 -102 94 -102h209q93 0 93 102v311h-304q-92 0 -92 -100v-211zM805 637h389v168q0 102 -92 102h-207q-90 0 -90 -102v-168z" />
<glyph unicode="&#xe7;" horiz-adv-x="792" d="M141 209v606q0 96 51.5 152.5t153.5 56.5h385v-137q-27 14 -80 14h-272q-96 0 -96 -102v-574q0 -104 96 -104h272q53 0 80 14v-135h-207l-26 -80h47q80 0 116.5 -36t36.5 -109v-31q0 -154 -153 -154h-250l27 78h178q47 0 67.5 19.5t20.5 66.5v17q0 47 -20.5 66.5 t-65.5 19.5h-115l47 143h-88q-102 0 -153.5 56.5t-51.5 152.5z" />
<glyph unicode="&#xe8;" horiz-adv-x="929" d="M141 209v606q0 96 51.5 152.5t155.5 56.5h252q102 0 153.5 -56.5t51.5 -152.5v-283h-522v-315q0 -45 24.5 -71.5t67.5 -26.5h330q49 0 79 16v-135h-438q-102 0 -153.5 56.5t-51.5 152.5zM252 1434h143l213 -285h-110zM283 637h389v168q0 102 -92 102h-205q-92 0 -92 -102 v-168z" />
<glyph unicode="&#xe9;" horiz-adv-x="929" d="M141 209v606q0 96 51.5 152.5t155.5 56.5h252q102 0 153.5 -56.5t51.5 -152.5v-283h-522v-315q0 -45 24.5 -71.5t67.5 -26.5h330q49 0 79 16v-135h-438q-102 0 -153.5 56.5t-51.5 152.5zM283 637h389v168q0 102 -92 102h-205q-92 0 -92 -102v-168zM371 1149l213 285h143 l-246 -285h-110z" />
<glyph unicode="&#xea;" horiz-adv-x="929" d="M141 209v606q0 96 51.5 152.5t155.5 56.5h252q102 0 153.5 -56.5t51.5 -152.5v-283h-522v-315q0 -45 24.5 -71.5t67.5 -26.5h330q49 0 79 16v-135h-438q-102 0 -153.5 56.5t-51.5 152.5zM223 1149l201 285h111l200 -285h-108l-150 192l-147 -192h-107zM283 637h389v168 q0 102 -92 102h-205q-92 0 -92 -102v-168z" />
<glyph unicode="&#xeb;" horiz-adv-x="929" d="M141 209v606q0 96 51.5 152.5t155.5 56.5h252q102 0 153.5 -56.5t51.5 -152.5v-283h-522v-315q0 -45 24.5 -71.5t67.5 -26.5h330q49 0 79 16v-135h-438q-102 0 -153.5 56.5t-51.5 152.5zM270 1212v146h113v-146h-113zM283 637h389v168q0 102 -92 102h-205q-92 0 -92 -102 v-168zM561 1212v146h113v-146h-113z" />
<glyph unicode="&#xec;" horiz-adv-x="423" d="M-39 1434h143l213 -285h-110zM141 0v1024h142v-1024h-142z" />
<glyph unicode="&#xed;" horiz-adv-x="423" d="M94 1149l213 285h144l-246 -285h-111zM141 0v1024h142v-1024h-142z" />
<glyph unicode="&#xee;" horiz-adv-x="423" d="M-45 1149l201 285h110l201 -285h-109l-149 192l-148 -192h-106zM141 0v1024h142v-1024h-142z" />
<glyph unicode="&#xef;" horiz-adv-x="423" d="M10 1212v146h113v-146h-113zM141 0v1024h142v-1024h-142zM301 1212v146h113v-146h-113z" />
<glyph unicode="&#xf0;" horiz-adv-x="1058" d="M160 209v399q0 96 51 152.5t154 56.5h387l-310 332l-125 -98l-61 65l127 98l-205 220h170l139 -148l121 92l62 -63l-121 -94l305 -326q43 -45 43 -145v-541q0 -96 -50 -152.5t-153 -56.5h-329q-102 0 -153.5 56.5t-51.5 152.5zM309 233q0 -100 90 -100h258q92 0 93 100 v459h-349q-92 0 -92 -100v-359z" />
<glyph unicode="&#xf1;" d="M141 0v1024h473q100 0 152.5 -56.5t52.5 -152.5v-815h-141v803q0 100 -92 100h-303v-903h-142zM176 1151v55q0 229 162 230q66 0 157 -90.5t134 -90.5t61.5 35t18.5 140h75v-52q0 -127 -38.5 -180t-116.5 -53q-51 0 -105.5 45t-101.5 90t-84 45q-45 0 -65.5 -37 t-20.5 -137h-76z" />
<glyph unicode="&#xf2;" d="M141 209v606q0 96 51.5 152.5t153.5 56.5h268q102 0 153.5 -56.5t51.5 -152.5v-606q0 -96 -51 -152.5t-154 -56.5h-268q-102 0 -153.5 56.5t-51.5 152.5zM258 1434h143l213 -285h-110zM283 219q0 -100 92 -100h211q92 0 92 100v584q0 100 -92 100h-211q-92 0 -92 -100 v-584z" />
<glyph unicode="&#xf3;" d="M141 209v606q0 96 51.5 152.5t153.5 56.5h268q102 0 153.5 -56.5t51.5 -152.5v-606q0 -96 -51 -152.5t-154 -56.5h-268q-102 0 -153.5 56.5t-51.5 152.5zM283 219q0 -100 92 -100h211q92 0 92 100v584q0 100 -92 100h-211q-92 0 -92 -100v-584zM369 1149l213 285h143 l-246 -285h-110z" />
<glyph unicode="&#xf4;" d="M141 209v606q0 96 51.5 152.5t153.5 56.5h268q102 0 153.5 -56.5t51.5 -152.5v-606q0 -96 -51 -152.5t-154 -56.5h-268q-102 0 -153.5 56.5t-51.5 152.5zM223 1149l201 285h111l200 -285h-108l-150 192l-147 -192h-107zM283 219q0 -100 92 -100h211q92 0 92 100v584 q0 100 -92 100h-211q-92 0 -92 -100v-584z" />
<glyph unicode="&#xf5;" d="M141 209v606q0 96 51.5 152.5t153.5 56.5h268q102 0 153.5 -56.5t51.5 -152.5v-606q0 -96 -51 -152.5t-154 -56.5h-268q-102 0 -153.5 56.5t-51.5 152.5zM176 1151v55q0 229 162 230q66 0 157 -90.5t134 -90.5t61.5 35t18.5 140h75v-52q0 -127 -38.5 -180t-116.5 -53 q-51 0 -105.5 45t-101.5 90t-84 45q-45 0 -65.5 -37t-20.5 -137h-76zM283 219q0 -100 92 -100h211q92 0 92 100v584q0 100 -92 100h-211q-92 0 -92 -100v-584z" />
<glyph unicode="&#xf6;" d="M141 209v606q0 96 51.5 152.5t153.5 56.5h268q102 0 153.5 -56.5t51.5 -152.5v-606q0 -96 -51 -152.5t-154 -56.5h-268q-102 0 -153.5 56.5t-51.5 152.5zM279 1212v146h112v-146h-112zM283 219q0 -100 92 -100h211q92 0 92 100v584q0 100 -92 100h-211q-92 0 -92 -100 v-584zM569 1212v146h113v-146h-113z" />
<glyph unicode="&#xf7;" horiz-adv-x="946" d="M113 535v122h721v-122h-721zM401 184v133h127v-133h-127zM401 881v133h127v-133h-127z" />
<glyph unicode="&#xf8;" d="M20 0l121 152v663q0 96 51.5 152.5t153.5 56.5h268q117 0 164 -82l64 82h102l-127 -158v-657q0 -96 -51 -152.5t-154 -56.5h-266q-119 0 -160 80l-63 -80h-103zM283 199q10 -80 92 -80h211q92 0 92 100v479zM283 317l393 500q-8 86 -90 86h-211q-92 0 -92 -100v-486z" />
<glyph unicode="&#xf9;" d="M141 209v815h142v-805q0 -100 92 -100h303v905h141v-1024h-473q-102 0 -153.5 56.5t-51.5 152.5zM240 1434h143l213 -285h-111z" />
<glyph unicode="&#xfa;" d="M141 209v815h142v-805q0 -100 92 -100h303v905h141v-1024h-473q-102 0 -153.5 56.5t-51.5 152.5zM375 1149l213 285h143l-246 -285h-110z" />
<glyph unicode="&#xfb;" d="M141 209v815h142v-805q0 -100 92 -100h303v905h141v-1024h-473q-102 0 -153.5 56.5t-51.5 152.5zM223 1149l201 285h111l200 -285h-108l-150 192l-147 -192h-107z" />
<glyph unicode="&#xfc;" d="M141 209v815h142v-805q0 -100 92 -100h303v905h141v-1024h-473q-102 0 -153.5 56.5t-51.5 152.5zM279 1212v146h112v-146h-112zM569 1212v146h113v-146h-113z" />
<glyph unicode="&#xfd;" horiz-adv-x="839" d="M25 1024h159l240 -887l238 887h153l-438 -1434h-160l141 410h-24zM332 1149l213 285h143l-246 -285h-110z" />
<glyph unicode="&#xfe;" horiz-adv-x="944" d="M141 0v1024h142v-172h305q127 0 178 -51t51 -180v-215q0 -111 -53 -160t-176 -49h-305v-197h-142zM283 315h305q90 0 90 101v213q0 102 -90 102h-305v-416z" />
<glyph unicode="&#xff;" horiz-adv-x="839" d="M25 1024h159l240 -887l238 887h153l-438 -1434h-160l141 410h-24zM219 1212v146h113v-146h-113zM510 1212v146h113v-146h-113z" />
<glyph unicode="&#x152;" horiz-adv-x="1646" d="M158 209v1016q0 96 50 152.5t152 56.5h1199v-138q-29 10 -62 11h-520v-490h414q29 0 59 6v-137q-31 6 -59 6h-414v-565h561q35 0 59 10v-137h-1237q-102 0 -152 56.5t-50 152.5zM305 233q0 -100 92 -100h430v1167h-430q-92 0 -92 -100v-967z" />
<glyph unicode="&#x153;" horiz-adv-x="1466" d="M141 209v606q0 96 52.5 152.5t154.5 56.5h246q113 0 160 -90q47 90 155 90h228q102 0 152 -55.5t50 -153.5v-283h-520v-315q0 -45 24.5 -71.5t65.5 -26.5h330q53 0 80 16v-135h-412q-104 0 -153 90q-45 -90 -152 -90h-256q-100 0 -152.5 56.5t-52.5 152.5zM283 219 q0 -47 24.5 -73.5t67.5 -26.5h211q92 0 92 100v584q0 100 -92 100h-211q-92 0 -92 -100v-584zM819 637h387v168q0 102 -90 102h-207q-90 0 -90 -102v-168z" />
<glyph unicode="&#x178;" horiz-adv-x="1071" d="M2 1434h180l359 -660l356 660h172l-455 -818v-616h-147v616zM334 1542v115h112v-115h-112zM625 1542v115h112v-115h-112z" />
<glyph unicode="&#x2c6;" horiz-adv-x="839" d="M164 1149l201 285h110l201 -285h-109l-149 192l-148 -192h-106z" />
<glyph unicode="&#x2dc;" horiz-adv-x="935" d="M164 1151v55q0 229 162 230q66 0 156.5 -90.5t133.5 -90.5t61.5 35t18.5 140h76v-52q0 -127 -39 -180t-117 -53q-51 0 -105 45t-101.5 90t-83.5 45q-45 0 -65.5 -37t-20.5 -137h-76z" />
<glyph unicode="&#x2000;" horiz-adv-x="862" />
<glyph unicode="&#x2001;" horiz-adv-x="1724" />
<glyph unicode="&#x2002;" horiz-adv-x="862" />
<glyph unicode="&#x2003;" horiz-adv-x="1724" />
<glyph unicode="&#x2004;" horiz-adv-x="574" />
<glyph unicode="&#x2005;" horiz-adv-x="431" />
<glyph unicode="&#x2006;" horiz-adv-x="287" />
<glyph unicode="&#x2007;" horiz-adv-x="287" />
<glyph unicode="&#x2008;" horiz-adv-x="215" />
<glyph unicode="&#x2009;" horiz-adv-x="344" />
<glyph unicode="&#x200a;" horiz-adv-x="95" />
<glyph unicode="&#x2010;" horiz-adv-x="618" d="M109 535v124h401v-124h-401z" />
<glyph unicode="&#x2011;" horiz-adv-x="618" d="M109 535v124h401v-124h-401z" />
<glyph unicode="&#x2012;" horiz-adv-x="618" d="M109 535v124h401v-124h-401z" />
<glyph unicode="&#x2013;" horiz-adv-x="946" d="M113 535v122h721v-122h-721z" />
<glyph unicode="&#x2014;" horiz-adv-x="1480" d="M117 535v122h1247v-122h-1247z" />
<glyph unicode="&#x2018;" horiz-adv-x="405" d="M129 1087v164l94 246h115l-74 -254v-156h-135z" />
<glyph unicode="&#x2019;" horiz-adv-x="405" d="M68 1024l73 254v156h135v-166l-94 -244h-114z" />
<glyph unicode="&#x201a;" horiz-adv-x="405" d="M68 -283l73 254v156h135v-164l-94 -246h-114z" />
<glyph unicode="&#x201c;" horiz-adv-x="716" d="M129 1087v164l94 246h115l-74 -254v-156h-135zM440 1087v164l95 246h114l-71 -254v-156h-138z" />
<glyph unicode="&#x201d;" horiz-adv-x="716" d="M68 1024l73 254v156h135v-166l-94 -244h-114zM381 1024l72 254v156h137v-166l-94 -244h-115z" />
<glyph unicode="&#x201e;" horiz-adv-x="716" d="M68 -283l73 254v156h135v-164l-94 -246h-114zM381 -283l72 254v156h137v-164l-94 -246h-115z" />
<glyph unicode="&#x2022;" horiz-adv-x="874" d="M150 244v540q0 184 174 185h227q176 0 176 -185v-540q0 -184 -176 -185h-227q-174 0 -174 185z" />
<glyph unicode="&#x2026;" horiz-adv-x="1363" d="M121 0v160h153v-160h-153zM602 0v160h154v-160h-154zM1083 0v160h154v-160h-154z" />
<glyph unicode="&#x202f;" horiz-adv-x="344" />
<glyph unicode="&#x2039;" horiz-adv-x="712" d="M82 547v115l549 413v-143l-395 -324l395 -323v-152z" />
<glyph unicode="&#x203a;" horiz-adv-x="712" d="M82 133v143l395 324l-395 324v151l549 -413v-115z" />
<glyph unicode="&#x205f;" horiz-adv-x="431" />
<glyph unicode="&#x20ac;" horiz-adv-x="974" d="M88 547v88h70v219h-70v90h70v283q0 94 51 150.5t153 56.5h558v-150q-27 16 -80 16h-441q-94 0 -94 -102v-254h436v-90h-436v-219h436v-88h-436v-311q0 -102 96 -103h439q53 0 80 17v-150h-558q-102 0 -153 56.5t-51 154.5v336h-70z" />
<glyph unicode="&#x2122;" horiz-adv-x="1095" d="M123 1012v518l84 43v-139h131v-72h-131v-315q0 -53 47 -54h43q25 0 41 8v-79h-121q-41 0 -67.5 24.5t-26.5 65.5zM424 922v512h203q72 0 82 -68q4 31 25.5 49.5t56.5 18.5h106q43 0 66.5 -25t23.5 -66v-421h-84v389q0 51 -45 51h-65q-45 0 -45 -51v-389h-84v389 q0 51 -43 51h-115v-440h-82z" />
<glyph unicode="&#xe000;" horiz-adv-x="1024" d="M0 0v1024h1024v-1024h-1024z" />
<glyph unicode="&#xfb01;" horiz-adv-x="942" d="M141 0v1225q0 96 51.5 152.5t155.5 56.5h453v-138q-31 16 -80 17h-342q-96 0 -96 -105v-184h518v-1024h-142v903h-376v-903h-142z" />
<glyph unicode="&#xfb02;" horiz-adv-x="942" d="M141 0v1225q0 96 52.5 152.5t154.5 56.5h168v-131q-23 10 -61 10h-76q-96 0 -96 -105v-184h376v410h142v-1434h-142v903h-376v-903h-142z" />
</font>
</defs>
</svg>
